<svg width="591" height="113" viewBox="0 0 591 113" fill="none" xmlns="http://www.w3.org/2000/svg">
<path d="M71.8828 79.3867C67.9766 82.7461 63.6016 85.3242 58.7578 87.1211C53.9141 88.918 48.8945 89.8164 43.6992 89.8164C39.7148 89.8164 35.8672 89.2891 32.1562 88.2344C28.4844 87.2188 25.0273 85.7734 21.7852 83.8984C18.582 81.9844 15.6523 79.6992 12.9961 77.043C10.3398 74.3867 8.05469 71.457 6.14062 68.2539C4.26562 65.0117 2.80078 61.5547 1.74609 57.8828C0.730469 54.1719 0.222656 50.3242 0.222656 46.3398C0.222656 42.3555 0.730469 38.5078 1.74609 34.7969C2.80078 31.0859 4.26562 27.6289 6.14062 24.4258C8.05469 21.1836 10.3398 18.2344 12.9961 15.5781C15.6523 12.9219 18.582 10.6562 21.7852 8.78125C25.0273 6.86719 28.4844 5.40234 32.1562 4.38672C35.8672 3.33203 39.7148 2.80469 43.6992 2.80469C48.8945 2.80469 53.9141 3.70312 58.7578 5.5C63.6016 7.25781 67.9766 9.83594 71.8828 13.2344L62.9766 27.8828C60.5156 25.2266 57.6055 23.1953 54.2461 21.7891C50.8867 20.3437 47.3711 19.6211 43.6992 19.6211C39.9883 19.6211 36.5117 20.3242 33.2695 21.7305C30.0273 23.1367 27.1953 25.0508 24.7734 27.4727C22.3516 29.8555 20.4375 32.6875 19.0312 35.9688C17.625 39.2109 16.9219 42.668 16.9219 46.3398C16.9219 50.0117 17.625 53.4688 19.0312 56.7109C20.4375 59.9141 22.3516 62.7266 24.7734 65.1484C27.1953 67.5703 30.0273 69.4844 33.2695 70.8906C36.5117 72.2969 39.9883 73 43.6992 73C47.3711 73 50.8867 72.2969 54.2461 70.8906C57.6055 69.4453 60.5156 67.3945 62.9766 64.7383L71.8828 79.3867ZM138.387 56.0664C138.387 60.7539 137.547 65.1289 135.867 69.1914C134.188 73.2148 131.902 76.7109 129.012 79.6797C126.121 82.6094 122.723 84.9336 118.816 86.6523C114.949 88.332 110.789 89.1719 106.336 89.1719C101.922 89.1719 97.7617 88.332 93.8555 86.6523C89.9883 84.9336 86.5898 82.6094 83.6602 79.6797C80.7695 76.7109 78.4844 73.2148 76.8047 69.1914C75.125 65.1289 74.2852 60.7539 74.2852 56.0664C74.2852 51.3008 75.125 46.8867 76.8047 42.8242C78.4844 38.7617 80.7695 35.2656 83.6602 32.3359C86.5898 29.3672 89.9883 27.043 93.8555 25.3633C97.7617 23.6836 101.922 22.8438 106.336 22.8438C110.789 22.8438 114.949 23.6445 118.816 25.2461C122.723 26.8086 126.121 29.0547 129.012 31.9844C131.902 34.875 134.188 38.3711 135.867 42.4727C137.547 46.5352 138.387 51.0664 138.387 56.0664ZM122.273 56.0664C122.273 53.4883 121.844 51.1641 120.984 49.0938C120.164 46.9844 119.031 45.1875 117.586 43.7031C116.141 42.1797 114.441 41.0273 112.488 40.2461C110.574 39.4258 108.523 39.0156 106.336 39.0156C104.148 39.0156 102.078 39.4258 100.125 40.2461C98.2109 41.0273 96.5312 42.1797 95.0859 43.7031C93.6797 45.1875 92.5664 46.9844 91.7461 49.0938C90.9258 51.1641 90.5156 53.4883 90.5156 56.0664C90.5156 58.4883 90.9258 60.7344 91.7461 62.8047C92.5664 64.875 93.6797 66.6719 95.0859 68.1953C96.5312 69.7188 98.2109 70.9297 100.125 71.8281C102.078 72.6875 104.148 73.1172 106.336 73.1172C108.523 73.1172 110.574 72.707 112.488 71.8867C114.441 71.0664 116.141 69.9141 117.586 68.4297C119.031 66.9453 120.164 65.1484 120.984 63.0391C121.844 60.9297 122.273 58.6055 122.273 56.0664ZM207.879 88H204.012L197.801 79.3867C196.277 80.7539 194.656 82.043 192.938 83.2539C191.258 84.4258 189.48 85.4609 187.605 86.3594C185.73 87.2188 183.797 87.9023 181.805 88.4102C179.852 88.918 177.859 89.1719 175.828 89.1719C171.414 89.1719 167.254 88.3516 163.348 86.7109C159.48 85.0312 156.082 82.7266 153.152 79.7969C150.262 76.8281 147.977 73.332 146.297 69.3086C144.617 65.2461 143.777 60.832 143.777 56.0664C143.777 51.3398 144.617 46.9453 146.297 42.8828C147.977 38.8203 150.262 35.3047 153.152 32.3359C156.082 29.3672 159.48 27.043 163.348 25.3633C167.254 23.6836 171.414 22.8438 175.828 22.8438C177.234 22.8438 178.68 22.9609 180.164 23.1953C181.688 23.4297 183.152 23.8203 184.559 24.3672C186.004 24.875 187.352 25.5586 188.602 26.418C189.852 27.2773 190.906 28.332 191.766 29.582V0.285156H207.879V88ZM191.766 56.0664C191.766 53.8789 191.336 51.7695 190.477 49.7383C189.656 47.668 188.523 45.8516 187.078 44.2891C185.633 42.6875 183.934 41.418 181.98 40.4805C180.066 39.5039 178.016 39.0156 175.828 39.0156C173.641 39.0156 171.57 39.4062 169.617 40.1875C167.703 40.9688 166.023 42.1016 164.578 43.5859C163.172 45.0312 162.059 46.8086 161.238 48.918C160.418 51.0273 160.008 53.4102 160.008 56.0664C160.008 58.3711 160.418 60.5586 161.238 62.6289C162.059 64.6992 163.172 66.5156 164.578 68.0781C166.023 69.6406 167.703 70.8711 169.617 71.7695C171.57 72.668 173.641 73.1172 175.828 73.1172C178.016 73.1172 180.066 72.6484 181.98 71.7109C183.934 70.7344 185.633 69.4648 187.078 67.9023C188.523 66.3008 189.656 64.4844 190.477 62.4531C191.336 60.3828 191.766 58.2539 191.766 56.0664ZM245.086 72.6484C245.711 72.8438 246.336 72.9805 246.961 73.0586C247.586 73.0977 248.211 73.1172 248.836 73.1172C250.398 73.1172 251.902 72.9023 253.348 72.4727C254.793 72.043 256.141 71.4375 257.391 70.6562C258.68 69.8359 259.812 68.8594 260.789 67.7266C261.805 66.5547 262.625 65.2656 263.25 63.8594L274.969 75.6367C273.484 77.7461 271.766 79.6406 269.812 81.3203C267.898 83 265.809 84.4258 263.543 85.5977C261.316 86.7695 258.953 87.6484 256.453 88.2344C253.992 88.8594 251.453 89.1719 248.836 89.1719C244.422 89.1719 240.262 88.3516 236.355 86.7109C232.488 85.0703 229.09 82.7852 226.16 79.8555C223.27 76.9258 220.984 73.4492 219.305 69.4258C217.625 65.3633 216.785 60.9102 216.785 56.0664C216.785 51.1055 217.625 46.5742 219.305 42.4727C220.984 38.3711 223.27 34.875 226.16 31.9844C229.09 29.0938 232.488 26.8477 236.355 25.2461C240.262 23.6445 244.422 22.8438 248.836 22.8438C251.453 22.8438 254.012 23.1562 256.512 23.7812C259.012 24.4063 261.375 25.3047 263.602 26.4766C265.867 27.6484 267.977 29.0938 269.93 30.8125C271.883 32.4922 273.602 34.3867 275.086 36.4961L245.086 72.6484ZM253.289 39.6602C252.547 39.3867 251.805 39.2109 251.062 39.1328C250.359 39.0547 249.617 39.0156 248.836 39.0156C246.648 39.0156 244.578 39.4258 242.625 40.2461C240.711 41.0273 239.031 42.1602 237.586 43.6445C236.18 45.1289 235.066 46.9258 234.246 49.0352C233.426 51.1055 233.016 53.4492 233.016 56.0664C233.016 56.6523 233.035 57.3164 233.074 58.0586C233.152 58.8008 233.25 59.5625 233.367 60.3438C233.523 61.0859 233.699 61.8086 233.895 62.5117C234.09 63.2148 234.344 63.8398 234.656 64.3867L253.289 39.6602ZM301.688 20.793V54.4258H318.504C320.809 54.4258 322.977 53.9961 325.008 53.1367C327.039 52.2383 328.816 51.0273 330.34 49.5039C331.863 47.9805 333.055 46.2031 333.914 44.1719C334.812 42.1016 335.262 39.9141 335.262 37.6094C335.262 35.3047 334.812 33.1367 333.914 31.1055C333.055 29.0352 331.863 27.2383 330.34 25.7148C328.816 24.1914 327.039 23 325.008 22.1406C322.977 21.2422 320.809 20.793 318.504 20.793H301.688ZM301.688 88H284.871V3.97656H318.504C321.59 3.97656 324.559 4.38672 327.41 5.20703C330.262 5.98828 332.918 7.12109 335.379 8.60547C337.879 10.0508 340.145 11.8086 342.176 13.8789C344.246 15.9102 346.004 18.1758 347.449 20.6758C348.934 23.1758 350.066 25.8516 350.848 28.7031C351.668 31.5547 352.078 34.5234 352.078 37.6094C352.078 42.2188 351.199 46.5742 349.441 50.6758C347.684 54.7383 345.281 58.293 342.234 61.3398C339.188 64.3867 335.613 66.7891 331.512 68.5469C327.449 70.3047 323.113 71.1836 318.504 71.1836H301.688V88ZM421.043 88H417.176L410.965 79.3867C409.441 80.7539 407.82 82.043 406.102 83.2539C404.422 84.4258 402.645 85.4609 400.77 86.3594C398.895 87.2188 396.961 87.9023 394.969 88.4102C393.016 88.918 391.023 89.1719 388.992 89.1719C384.578 89.1719 380.418 88.4297 376.512 86.9453C372.645 85.4609 369.246 83.3125 366.316 80.5C363.426 77.6484 361.141 74.1719 359.461 70.0703C357.781 65.9688 356.941 61.3008 356.941 56.0664C356.941 51.1836 357.781 46.7109 359.461 42.6484C361.141 38.5469 363.426 35.0312 366.316 32.1016C369.246 29.1719 372.645 26.9062 376.512 25.3047C380.418 23.6641 384.578 22.8438 388.992 22.8438C391.023 22.8438 393.035 23.0977 395.027 23.6055C397.02 24.1133 398.953 24.8164 400.828 25.7148C402.703 26.6133 404.48 27.668 406.16 28.8789C407.879 30.0898 409.48 31.3984 410.965 32.8047L417.176 25.3633H421.043V88ZM404.93 56.0664C404.93 53.8789 404.5 51.7695 403.641 49.7383C402.82 47.668 401.688 45.8516 400.242 44.2891C398.797 42.6875 397.098 41.418 395.145 40.4805C393.23 39.5039 391.18 39.0156 388.992 39.0156C386.805 39.0156 384.734 39.3867 382.781 40.1289C380.867 40.8711 379.188 41.9648 377.742 43.4102C376.336 44.8555 375.223 46.6523 374.402 48.8008C373.582 50.9102 373.172 53.332 373.172 56.0664C373.172 58.8008 373.582 61.2422 374.402 63.3906C375.223 65.5 376.336 67.2773 377.742 68.7227C379.188 70.168 380.867 71.2617 382.781 72.0039C384.734 72.7461 386.805 73.1172 388.992 73.1172C391.18 73.1172 393.23 72.6484 395.145 71.7109C397.098 70.7344 398.797 69.4648 400.242 67.9023C401.688 66.3008 402.82 64.4844 403.641 62.4531C404.5 60.3828 404.93 58.2539 404.93 56.0664ZM449.285 88H433.289V25.2461H437.156L442.43 32.6875C445.008 30.3438 447.938 28.5469 451.219 27.2969C454.5 26.0078 457.898 25.3633 461.414 25.3633H475.535V41.3008H461.414C459.734 41.3008 458.152 41.6133 456.668 42.2383C455.184 42.8633 453.895 43.7227 452.801 44.8164C451.707 45.9102 450.848 47.1992 450.223 48.6836C449.598 50.168 449.285 51.75 449.285 53.4297V88ZM514.441 88C510.574 88 506.941 87.2773 503.543 85.832C500.145 84.3477 497.156 82.3359 494.578 79.7969C492.039 77.2188 490.027 74.2305 488.543 70.832C487.098 67.4336 486.375 63.8008 486.375 59.9336V41.3008H478.582V25.3633H486.375V0.285156H502.312V25.3633H526.57V41.3008H502.312V59.9336C502.312 61.6133 502.625 63.1953 503.25 64.6797C503.875 66.125 504.734 67.3945 505.828 68.4883C506.922 69.582 508.211 70.4609 509.695 71.125C511.18 71.75 512.762 72.0625 514.441 72.0625H526.57V88H514.441ZM550.711 111.906V95.793L559.617 95.9102C561.18 95.9102 562.684 95.6562 564.129 95.1484C565.574 94.6406 566.902 93.9375 568.113 93.0391C569.363 92.1406 570.457 91.0664 571.395 89.8164C572.332 88.6055 573.094 87.2773 573.68 85.832C571.922 86.5742 570.125 87.3164 568.289 88.0586C566.492 88.8008 564.676 89.1719 562.84 89.1719C558.973 89.1719 555.34 88.4883 551.941 87.1211C548.543 85.7539 545.555 83.8203 542.977 81.3203C540.438 78.7812 538.426 75.7148 536.941 72.1211C535.496 68.4883 534.773 64.4258 534.773 59.9336V25.2461H550.711V59.9336C550.711 62.1602 551.023 64.1133 551.648 65.793C552.312 67.4336 553.191 68.8203 554.285 69.9531C555.379 71.0469 556.648 71.8672 558.094 72.4141C559.578 72.9609 561.16 73.2344 562.84 73.2344C564.48 73.2344 566.023 72.8633 567.469 72.1211C568.953 71.3398 570.242 70.3242 571.336 69.0742C572.43 67.8242 573.289 66.418 573.914 64.8555C574.539 63.2539 574.852 61.6133 574.852 59.9336V25.2461H590.965V80.0898C590.926 84.5039 590.066 88.6445 588.387 92.5117C586.707 96.3789 584.402 99.7578 581.473 102.648C578.582 105.539 575.203 107.824 571.336 109.504C567.469 111.184 563.328 112.023 558.914 112.023L550.711 111.906Z" fill="url(#paint0_linear_1886_6370)"/>
<defs>
<linearGradient id="paint0_linear_1886_6370" x1="297" y1="5.5" x2="316" y2="163" gradientUnits="userSpaceOnUse">
<stop stop-color="#8270FE"/>
<stop offset="1" stop-color="#D6D1F9"/>
</linearGradient>
</defs>
</svg>
